<?xml version="1.0" encoding="utf-8" standalone="no"?>
<!DOCTYPE svg PUBLIC "-//W3C//DTD SVG 1.1//EN"
  "http://www.w3.org/Graphics/SVG/1.1/DTD/svg11.dtd">
<svg xmlns:xlink="http://www.w3.org/1999/xlink" width="223.2pt" height="221.76pt" viewBox="0 0 223.2 221.76" xmlns="http://www.w3.org/2000/svg" version="1.1">
 <defs>
  <style type="text/css">*{stroke-linejoin: round; stroke-linecap: butt}</style>
 </defs>
 <g id="figure_1">
  <g id="patch_1">
   <path d="M 0 221.76 
L 223.2 221.76 
L 223.2 0 
L 0 0 
z
" style="fill: #ffffff"/>
  </g>
  <g id="axes_1">
   <g id="line2d_1">
    <path d="M 0 196.164564 
L 32.396396 196.031265 
L 44.014414 195.773456 
L 51.387387 195.401789 
L 56.972973 194.905019 
L 61.441441 194.287872 
L 65.23964 193.535681 
L 68.367568 192.700093 
L 71.272072 191.695007 
L 73.953153 190.519465 
L 76.410811 189.183931 
L 78.645045 187.7118 
L 80.655856 186.139657 
L 82.666667 184.296774 
L 84.677477 182.144952 
L 86.688288 179.64383 
L 88.699099 176.752069 
L 90.70991 173.429066 
L 92.720721 169.637274 
L 94.731532 165.345127 
L 96.742342 160.530489 
L 98.976577 154.557779 
L 101.210811 147.941915 
L 103.668468 139.974602 
L 106.572973 129.77162 
L 110.594595 114.719399 
L 117.297297 89.569522 
L 120.201802 79.545721 
L 122.882883 71.096604 
L 125.117117 64.734612 
L 127.351351 59.024245 
L 129.362162 54.443801 
L 131.372973 50.377412 
L 133.383784 46.798298 
L 135.394595 43.671837 
L 137.405405 40.958796 
L 139.416216 38.617997 
L 141.427027 36.608357 
L 143.437838 34.89036 
L 145.672072 33.278644 
L 147.906306 31.935173 
L 150.363964 30.718278 
L 153.045045 29.648669 
L 155.94955 28.735271 
L 159.300901 27.929987 
L 163.099099 27.260928 
L 167.567568 26.712487 
L 172.92973 26.285117 
L 179.855856 25.963345 
L 189.686486 25.743571 
L 206.443243 25.622446 
L 223.2 25.595436 
L 223.2 25.595436 
" clip-path="url(#p856663ae14)" style="fill: none; stroke: #000000; stroke-width: 48; stroke-linecap: square"/>
   </g>
  </g>
 </g>
 <defs>
  <clipPath id="p856663ae14">
   <rect x="0" y="-0" width="223.2" height="221.76"/>
  </clipPath>
 </defs>
</svg>
